<svg xmlns="http://www.w3.org/2000/svg" viewBox="0 0 2000 1001" preserveAspectRatio="xMidYMid meet">
  <style>.c{fill:#2EC4B6;fill-opacity:.22;stroke:#2EC4B6;stroke-width:1;stroke-opacity:.45}</style>
  <!-- North America - proper shape -->
  <path class="c" d="M168.15,58.94l12.45,2.53,10.68-6.53,14.98-2.75,12.25,5.32,3.99,12.73-1.68,8.09,3.09,4.69,10.88,7.08,5.78-2.75,3.78,1.46,6.09,9.35,10.08,2.45,4.29,5.42,7.08-.8,6.99,2.86,5.78-2.04,4.29,3.47,7.18,6.74,9.18,2.65,6.09,4.19,8.08,1.74,6.89,6.54,11.38,6.63,5.79,7.18,13.47,4.69,5.29,6.22,9.88,3.36,3.69-2.14,7.58,1.64,3.79,8.59,9.48,5.93,6.49,8.69,3.29,10.21,10.18,3.98,3.19,5.32,8.58.41,6.49,5.32,10.18,1.34,8.08,5.42,11.48,2.55,5.59,9.61,6.59,1.24-.9,10.51,4.99,9.2,11.68,5.73-.1,9.51,5.79,2.24,4.49,8.9,1.89,7.28,7.49,3.98,1.29,5.42,4.59,3.98,9.78.71,6.99,4.49,10.88,10.2,5.79,9.5,9.78,9.81,2.89,10.42-.21,6.21-3.87,5.62-9.48,3.31-9.78-.7-12.57-7.77-3.41-7.49-1.19-9.1,3.08-7.59,2.09-10.29-2.89-5.52-7.59-.71-5.69,1.6-8.98,1-3.79-1.5-4.49,2.09-7.29-1.5-5.49-3.09-8.18-2.39-5.49-4.59-4.79.5-4.29-2.39-8.48,1.6-3.59-1.1-1.2-3.19-3.59.6-5.09-2.29-1.8-4.99-5.19.1-2.69-2.39-8.18,1.6-3.59-5.29-8.38-2.29-1.8,2.59-2.89-1.29-4.29,3.29-1.3-2.89-5.19,1.4-5.59-3.09-1.1,4.09-3.59-.6-3.69,3.89-4.19-.8-2.19-4.39-3.99,1.6-7.88-1.9-5.69,4.59-7.28-1.6-2.59,1.9-5.59-1.9-4.99,2.39-7.88-.3-1.8-4.69-5.29.9-2.49-2.09-3.69,2.89-5.19-.5-4.19-3.79-3.89,1-1.9-5.59-4.79,1.4-2.29-3.49-5.59,1.6-2.09-4.29-5.19,1-1.4-6.18-8.28,.1-5.89-2.79-6.09,1.4-9.48-5.99-1.4-4.49-9.08-3.49-6.99,1.9-8.78-5.79-3.49,1.8-6.39-3.49-5.19,4.79-4.69-2.09-2.29,2.99-6.89-1.29-2.09,6.88-7.39,.5-5.09-5.79-7.18,3.69-3.89-1.99-.6-6.09-8.38,2.99-5.69-3.89-1.5-6.78-5.79,2.89-5.89-4.99-8.08,2.29-4.29-1.69-8.78,3.79-1.1-6.38-5.69,.8-4.09-3.59.2-6.48,5.09-2.59-.7-4.79,7.39-5.18,5.19-9.48,9.28-7.48,10.68-3.09,11.38,1.1,8.18-6.28,13.77-5.29z"/>
  <!-- Greenland -->
  <path class="c" d="M578.09,25.56l10.38,3.79,7.28,8.88,2.59,10.48-4.69,9.68-2.99,11.48,3.79,5.69-.3,7.48-6.89,5.49-2.69,8.58-6.39,4.79-7.58-2.09-4.49,5.89-8.58-1.1-7.48,4.79-9.38-1.5-7.88,3.19-10.08-4.19-5.69,2.29-10.08-3.49-4.99-7.18,2.89-5.69-7.68-6.28,3.39-5.09-4.79-3.59-6.39,3.99-5.09-6.18-5.39,2.59-3.69-7.88,5.79-5.89,8.38-3.59,11.28,.8,6.89-4.29,4.39,3.49,6.49-4.99,11.48,2.39,6.29-4.69,11.18,3.09,4.89-3.59,8.98,2.49,3.39-6.68,8.28,3.89z"/>
  <!-- Central America -->
  <path class="c" d="M247.12,347.91l4.59,1.6,3.19,4.29-.8,3.99,2.69,3.49-.7,4.89,3.59,4.59-.1,3.99-2.49,1.4,1.2,4.29-3.29,2.69.1,4.99-3.09,.6-.5,3.59-2.59,.9,.3,4.39-4.19,3.99-4.99,1.5-1.2,5.09-4.79,3.59-4.69-.4-1.3,3.39-4.99-.6-2.69,3.19-2.69-2.29-3.69,1.8,.2,5.19-4.49,.2-1.1-2.89-3.89,.9-1.7,4.09-4.39,.9-1.8-2.39-3.29,2.09-4.69-1.4-2.09,2.69-5.69-.2-2.49-3.59,4.39-4.59,3.19-5.69,6.99-3.99,1.8-4.09,5.39-3.39,5.89,.1,2.69-3.99,6.39-.6,3.59-4.29,5.29-1.2,1.2-4.19,6.69-1.8,3.69-5.59,5.59-2.59,4.69-5.89,4.69-.1z"/>
  <!-- South America -->
  <path class="c" d="M286.92,438.07l2.59,8.48,5.29,3.69,3.89-2.59,4.59,5.09-.2,5.89,4.99,6.18-.8,4.79,3.89,7.58,6.39,5.29,3.29,7.88,.2,7.88,4.19,7.08-1.1,5.29,2.59,9.48-1,8.18,1.4,8.48,4.49,7.18,1.5,7.98-.6,11.28,4.09,10.98-1.1,6.29,2.19,7.28-4.59,8.08,.4,7.18-2.19,3.69,.3,7.78-2.49,8.28-4.49,6.49-1.4,10.38-3.89,4.89-1.2,8.48-4.39,3.79,.1,5.59-9.38,7.58-5.29,8.78-5.59,4.29-7.48,1.3-4.29,5.49-5.99,4.29-1.9,5.09-5.69,6.68-3.79-1.3-4.09,5.99-7.28-1.6-6.49,3.19-2.89,4.39-8.08-.5-7.18,2.69-8.28-2.19-6.49-4.99-5.39,1.1-8.28-2.99-4.49-5.69-1.2-7.38-5.79-8.08-2.69-8.38,.2-6.78-4.89-10.08,.3-9.58-2.59-5.99,1.7-8.68-4.89-2.99.7-6.88-5.79-1.9-2.89-6.48-.1-6.18,4.29-2.09,1-5.49,5.09-4.99-.4-8.78,2.89-3.49-.6-7.78,4.09-5.29-.9-4.99-2.89-4.39,2.59-6.99-4.39-5.19,3.19-3.59-.1-5.99,5.49-5.39,4.69-.2,2.69-4.29,6.49-1,4.69,6.08,5.89.4,3.29-2.79,4.89,2.59,5.29-.4z"/>
  <!-- Western Europe -->
  <path class="c" d="M893.95,198.72l-5.69,4.29,1.3,5.89-3.29,3.79,1.3,5.59-4.39,3.09,.1,4.29-5.79,1-1.8,4.69-5.49,.2-3.89,5.89-7.18,.8-2.69,5.59-4.29,.5-3.79,5.09-6.38-.9-3.59-6.18-8.98,1.9-1.2,5.99-5.69-.4-2.89,3.99-7.98,.6,.1-5.69-6.78,.2-7.88-5.29-3.99,2.29-1.1-4.49-7.68,1-1.9,4.09-5.19-1-2.59,2.99-6.29-2.49,1.7-4.39-5.69-1.9-5.09,2.69-4.19-4.69-3.99,2.59-5.99-5.49,2.39-3.99-4.39-5.09,.8-5.69-6.09-4.09-2.09-8.28,5.29-2.59,3.99,4.29,5.19-1,3.09-5.19,7.28,2.19,6.99-3.59,2.39,5.19,5.39-1.1,4.29,4.49,6.09-.7,4.69-3.79,6.79,1.4,5.49-2.99,8.58,.7,2.79-4.29,6.39,2.09,5.39-3.29,5.69,.9,5.09-3.29,7.68,.6,3.39-3.79,7.18,2.79,4.79-2.59,4.89,3.69,5.89-1.1,4.69,4.69,5.89,.1z"/>
  <!-- UK & Ireland -->
  <path class="c" d="M820.08,152.05l-.5,5.59-4.69,4.49-6.99,1.2-3.79,6.09-6.28-.8-4.39,3.69-2.99-4.69,3.59-6.09,6.28-2.99,4.89-5.89,6.09,.5,5.29-3.39,3.49,2.29z"/>
  <path class="c" d="M793.01,147.16l-2.89,4.09-5.59-.8-2.59-4.59,2.59-3.79,5.09.7,3.39,4.39z"/>
  <!-- Scandinavia -->
  <path class="c" d="M905.93,63.38l4.99,3.19,1.5,6.49-6.29,6.28,4.49,4.49-3.69,5.99,4.09,6.18-3.49,5.49,2.79,5.09-8.08,6.58-8.98-1-4.19,6.49-6.89-2.79-5.39,4.49-4.29-5.19-3.79,5.09-4.69-4.99-6.29,1.4-.4-7.18-7.18,3.99-.9-6.58-7.78,1.9-2.39-4.39,6.99-4.89-.3-4.99,10.98-6.68,8.38-10.98,12.47-8.98,7.38,1.5,5.29-3.79,8.18,2.69,7.48-4.49z"/>
  <!-- Eastern Europe/Russia -->
  <path class="c" d="M976.68,75.66l16.87,8.38,12.67,1.4,9.78,6.78,15.07,2.69,11.18-2.09,13.77,7.08,9.18,.6,5.59,5.89,11.98,1.3,8.78,6.48,14.47,.6,8.78,5.59,9.08-2.89,9.38,4.49,13.27,.2,11.68,5.39,14.87-4.59,14.97,5.59,7.28-4.69,12.77,3.19,3.79-5.39,9.08,3.79,14.27-8.18,9.88,4.29,5.49-3.79,9.78,3.89,4.19-5.59,7.38,4.19,12.18-.6,7.08,6.09,11.18-2.49,4.19,4.99,9.28-2.39,8.38,4.49,14.67-.8,8.68,4.59,11.28-1.8,8.98,7.78,9.88-2.19,6.09,6.98,13.67,.9,4.69,4.19,14.37-2.49,6.69,6.09,8.48-1.1,6.89,6.78-2.19,5.39,7.58,5.49,9.68-3.69,7.88,7.98,8.38-3.79,3.29,5.89,10.78,.3,5.89,6.98-5.89,4.69,.7,6.29,7.08,1,2.29,8.38-8.08,3.49,2.39,7.58-6.49,1.4,1.1,5.89-7.18,4.89,2.99,6.48-10.68,2.79-3.49,6.68-8.78-.3-2.49,7.08-10.58,2.69,.9,6.29-9.78,4.19-9.48-3.09-7.48,6.28-12.27,1.4-5.09-4.69-9.38,4.99-12.87-6.28-5.39,3.69-10.88-2.59-7.18,4.89-10.78-6.09-5.39,2.69-11.18-3.09-4.79,5.79-8.48-4.09-10.68,3.79-7.88-3.49-3.69,5.79-12.47-5.59-2.69,4.69-10.28-4.89-6.09,4.29-8.78-3.09-9.58,4.49-8.08-5.69-6.59,4.69-5.79-5.69-9.88,2.59-5.29-5.29-9.38,3.99-7.08-7.08-9.08,2.09-6.09-5.09-4.49,4.09-6.79-6.18-3.89,3.69-8.18-4.69-3.99,4.09-7.78-5.19-6.99,2.69-5.69-5.39-5.49,3.39-5.39-5.39-8.18,1.6-5.89-5.99-4.59,4.09-7.48-4.09-2.79,4.89-8.48-2.69-2.49,4.99-7.18-5.29-6.59,3.19-5.19-4.89-6.99,2.49-4.29-5.59-8.78,2.99-5.79-4.99-6.49,2.99-7.48-3.39,2.09-5.69-8.58-.7-3.29-6.38,6.29-3.79-.1-4.99,8.58-2.79,2.29-7.08,7.98-1.2,3.79-7.78,12.18-1,5.49-7.08,10.28-2.09,6.79,4.59,6.29-4.39,9.38,3.49,8.48-4.09,7.98,5.09,9.18-3.09,5.69,6.18,9.48-1.9,4.79,4.79,8.78-2.29z"/>
  <!-- Africa -->
  <path class="c" d="M887.06,310.67l5.79,2.59,1.9,6.58,6.19,4.49,2.79,7.08,7.38,5.39,.3,5.29,5.29,3.09,1.9,6.78-1.1,5.39,4.09,4.89-1.6,5.89,3.39,6.58-2.49,4.69,2.39,6.68-3.19,5.69,1.1,7.78-3.99,5.79,.1,6.38-4.79,5.09-.8,6.49-4.29,5.19-1.5,8.18-4.69,4.99-3.19,7.48-6.09,5.09-3.89,7.68-1.4,11.08-4.49,6.88-1.1,8.08-6.09,6.49-4.99-.1-2.79,6.09-6.49,2.49-5.99-4.79-3.09,3.79-4.99-3.39-6.09,2.99-4.79-3.79-5.69,1-3.79-4.89-6.29,.6-3.89-4.39-7.08-1.3-2.09-5.09-4.89,1.6-5.69-4.99-7.78,.4-2.49-7.08-4.79-.8-6.59,2.59-3.49-4.79-8.08,1.4-4.19-5.09-3.79,3.49-6.09-3.29-1.9-5.69-4.99-1.3,1.8-6.09-5.19-1.5,.5-6.58-4.99-4.19,1.3-6.09-4.09-5.29,.2-6.88-3.19-5.29,2.79-6.28-3.99-4.99-1.2-6.58,2.69-5.39-3.49-5.39,4.39-5.99-2.49-6.29,2.69-4.69-4.89-4.39-1.4-7.28,3.39-4.59-2.89-6.68,2.69-7.18-4.49-3.49,2.59-6.98-3.79-2.79,3.49-6.78-3.19-7.18,2.19-4.39,7.48,.6,4.69-3.89,7.58,1.4,3.69-5.69,6.29,1.9,5.79-2.99,5.09,1.3,4.99-3.19,6.58,2.39,3.79-2.69,5.89,1.7,4.89-2.19,7.68,3.19,4.39-3.69,7.28,1.2,4.39-4.69,5.99,.4,4.79-3.79,5.59,.6,6.29-3.79,6.78-.1z"/>
  <!-- Middle East -->
  <path class="c" d="M1013.78,268.43l4.09,3.49,2.99,7.48,5.79,2.29,2.79,5.69-.5,6.09,4.99,4.49-1.9,5.89-5.49,2.19-3.29,5.59-7.38,.8-.9,7.18-6.09,3.09-1.5,6.48-6.09,.5-2.49,5.79-6.48,1.1-3.29,4.89-9.58,3.99-4.29-2.59-1.3-6.18,3.99-4.49-2.99-5.19,5.89-3.79-1.9-6.28,4.69-3.49-.6-6.18,3.79-4.09-2.59-4.69,5.79-2.19-.4-5.39,4.89-3.29.4-6.78,7.38-2.29,5.49,5.39,4.69-3.19,6.29,2.99z"/>
  <!-- India -->
  <path class="c" d="M1138.98,319.02l3.59,5.89,6.49,.9,2.99,5.29-2.59,4.19,4.79,5.09-.8,6.49,5.69,5.39-1.2,5.59,4.09,7.48,.2,8.98-3.79,5.49,2.19,6.48-2.09,7.58-5.49,5.89-7.28,9.98-5.89,4.99-6.99,2.49-4.59,6.79-1.1,7.48-5.09,.4-3.59,8.78-5.09-7.18-2.39-9.78,3.09-5.49-4.89-3.49,1.7-5.39-3.99-7.78,1-5.99-2.99-9.78,5.39-2.99-.6-5.39,3.89-5.79-.6-7.48,4.99-7.18,1.4-9.48,5.59-3.19-.3-6.09,6.39-1.7-.9-5.49,4.29-3.39,8.08,6.88,6.29-1.6z"/>
  <!-- Southeast Asia -->
  <path class="c" d="M1228.13,352.9l2.49,8.28,5.79,4.29,3.99-3.09,5.59,5.79,1.1,9.28-2.29,8.98,3.79,7.28-3.19,4.89,3.09,6.29-6.18,1.8-.8,7.18-5.99,4.69.2,5.79-3.49,9.18-3.39-6.58-3.09,5.99-5.89-2.69,2.49-7.48-5.99-4.19.9-5.69-4.39-5.29-1.2-8.58,4.29-6.68-3.09-5.59,3.49-5.19-2.09-9.48,5.99,2.99,1.6-6.98,5.29,2.99,.8-7.58z"/>
  <!-- China -->
  <path class="c" d="M1186.65,157.63l6.29,4.69,1.9,8.38,6.59,5.99,8.68-.3,7.08,4.29,8.48-1.8,9.28,3.29,6.38-4.99,9.38,1.1,11.68-6.29,6.39,2.59,4.99-4.09,7.78,6.68,4.19-4.29,8.28,2.29,6.68-4.79,9.28,5.79-3.59,8.38,6.29,4.79-4.09,5.39,4.99,6.09-6.79,3.79,3.59,4.99-8.08,4.89,5.39,5.79-5.09,5.29,3.99,6.78-4.39,4.79,3.79,5.89-6.29,4.19,2.69,4.89-7.48,3.19,.6,6.18-5.99,4.69,2.19,5.49-7.28,2.59-.2,6.58-6.09,3.29-1.7,7.28-6.49-1.3-4.09,6.68-8.08-1.3-5.79,4.09-7.68-3.39-6.59,4.19-3.99-4.29-7.58,2.79-5.59-4.89-6.98,1.6-4.39-5.49-9.98,3.29-5.79-5.69-6.99,1.3-9.08-5.09,.1-7.28-6.09-2.39.4-6.58-6.98-4.39.6-5.69-7.48-2.09,.8-7.08-5.29-4.99-.4-8.98,4.79-6.49-4.19-5.09,5.69-5.79-3.79-6.09,6.09-4.49-1.8-7.28,4.59-4.59-4.19-5.09,3.99-5.39-2.39-7.48,6.89-1.4,3.89-6.88,7.28,.9,4.99-5.99,8.08,3.49,6.59-4.09,11.18,5.69,6.99-3.09z"/>
  <!-- Japan -->
  <path class="c" d="M1413.99,202.31l.8,4.89-4.09,4.09,2.59,5.19-3.79,6.68,5.39,3.99-2.99,4.89,3.69,5.19-4.59,3.99-5.69-4.89-1-7.08-3.99-5.29,4.39-4.69-2.19-4.99,5.09-4.79,2.99,3.79,3.39-5.99z"/>
  <path class="c" d="M1420.38,249.49l3.09,5.79-2.79,6.68-5.09-3.09-1.9-6.78,3.09-4.19,3.6,1.59z"/>
  <path class="c" d="M1402.51,261.47l2.29,4.99-2.49,4.19-4.39-2.79.3-4.69,4.29-1.7z"/>
  <!-- Korea -->
  <path class="c" d="M1369.44,229.77l3.89,6.18-.3,8.18-4.09,5.09-5.59-1.5-2.19-6.98,2.39-7.28,5.89-3.69z"/>
  <!-- Taiwan -->
  <path class="c" d="M1363.35,324.21l2.79,5.09-.9,6.18-4.39,2.09-2.39-5.59,1.4-6.28,3.49-1.49z"/>
  <!-- Philippines -->
  <path class="c" d="M1378.42,374.1l2.49,5.89-1.3,7.18,3.69,5.39-2.99,4.09-4.89-3.59-.4-7.48,2.09-5.39-3.09-4.99,4.4-1.1z"/>
  <path class="c" d="M1369.34,401.48l2.19,6.98-2.79,4.49-4.29-4.59.9-5.69,3.99-1.19z"/>
  <!-- Indonesia -->
  <path class="c" d="M1292.68,459.55l9.08,2.79,7.48-2.19,6.09,3.49,8.78-.6,4.59,5.29-6.29,3.39-8.58,.2-7.08-3.39-9.18,1.6-6.78-3.99-4.69,2.59-7.18-4.39,5.99-4.89,7.77,-.9z"/>
  <path class="c" d="M1336.65,469.83l7.18,3.09,8.18-1.6,4.09,4.99-4.69,4.29-8.08-.3-6.48-4.29-4.29,2.49-5.19-4.79,4.29-4.29,4.99,.41z"/>
  <path class="c" d="M1361.93,453.76l4.49,5.49,7.08-.2,3.49,5.49-5.19,3.19-6.78-2.79-5.69,1.6-4.09-4.69,2.69-5.59,4.00,-2.5z"/>
  <!-- Australia -->
  <path class="c" d="M1360.94,545.62l7.28,1.2,5.99,6.18,7.98,4.49,8.08,.1,8.38,5.69,5.99-.5,8.48,3.69,7.78-1,7.88,2.49,6.89-3.79,4.99,1.4,8.78-5.59,5.39,1,6.09-4.49,3.39,6.98-3.99,6.89,5.39,7.38-1.7,8.58,4.19,6.48-3.59,5.49,1.5,7.68-6.09,5.29-.8,7.28-6.99,2.39-2.09,9.38-5.39,4.09-1.4,8.38-6.29,4.59.6,7.28-4.89,4.39-5.49-3.69-6.79,2.69-7.98-6.58-7.28-1.2-3.19-5.99-9.18-2.99-6.68,3.59-9.18-2.59-11.28,3.99-5.99-1.2-8.08,3.49-9.28-4.09-8.28,1-5.59-5.09-6.89,3.49-7.48-3.19-.8-7.88-4.79-5.19,2.19-7.38-3.19-5.09,1.9-6.79,4.89-4.99,2.19-8.58,5.69-6.09,7.48-4.39,8.28,-.2z"/>
  <!-- New Zealand -->
  <path class="c" d="M1519.03,665.08l4.19,7.58,5.99,2.99,3.09-3.69,4.39,4.39-1.6,6.49-5.29,5.29-4.99-1.4-5.59,3.99-4.09-3.19,.6-7.28,3.29-5.59-2.39-6.98,2.4-2.6z"/>
  <path class="c" d="M1539.79,695.75l2.89,4.79-2.69,5.99-4.89-1.3-1.3-5.99,2.29-4.79,3.7,1.3z"/>
</svg>
