<svg xmlns="http://www.w3.org/2000/svg" viewBox="0 0 1200 600">
  <defs>
    <style>
      .land { fill: #2EC4B6; fill-opacity: 0.2; stroke: #2EC4B6; stroke-width: 0.8; stroke-opacity: 0.5; }
    </style>
  </defs>
  
  <!-- North America -->
  <path class="land" d="M120,80 L140,60 L180,50 L220,45 L260,50 L290,65 L310,85 L325,110 L330,140 L320,170 L300,195 L270,210 L235,220 L200,225 L175,235 L155,255 L140,280 L130,310 L125,290 L115,260 L100,235 L85,215 L75,190 L70,160 L75,130 L90,100 Z"/>
  
  <!-- Alaska -->
  <path class="land" d="M55,85 L75,75 L95,80 L105,95 L100,115 L85,125 L65,120 L50,105 Z"/>
  
  <!-- Greenland -->
  <path class="land" d="M320,35 L360,30 L400,40 L420,65 L415,95 L395,115 L360,120 L330,110 L315,85 L310,55 Z"/>
  
  <!-- Central America -->
  <path class="land" d="M155,255 L175,250 L195,260 L210,280 L205,305 L190,320 L170,330 L155,320 L145,295 L150,270 Z"/>
  
  <!-- Caribbean -->
  <path class="land" d="M225,275 L245,270 L260,280 L255,295 L235,300 L220,290 Z"/>
  <path class="land" d="M270,285 L290,280 L300,295 L290,310 L270,305 Z"/>
  
  <!-- South America -->
  <path class="land" d="M190,340 L230,330 L275,340 L310,370 L330,420 L340,480 L335,540 L310,580 L270,600 L230,590 L200,560 L180,510 L175,450 L180,400 L185,360 Z"/>
  
  <!-- Iceland -->
  <path class="land" d="M430,65 L450,60 L465,70 L460,85 L440,90 L425,80 Z"/>
  
  <!-- UK & Ireland -->
  <path class="land" d="M475,120 L490,115 L500,130 L495,150 L480,155 L470,140 Z"/>
  <path class="land" d="M500,110 L520,100 L540,110 L545,135 L530,160 L510,165 L495,150 L500,125 Z"/>
  
  <!-- Europe mainland -->
  <path class="land" d="M500,155 L540,140 L590,135 L640,145 L680,165 L700,195 L695,230 L670,250 L630,260 L585,255 L545,245 L515,225 L495,195 L490,165 Z"/>
  
  <!-- Scandinavia -->
  <path class="land" d="M530,50 L560,45 L590,55 L610,80 L605,115 L580,130 L550,125 L530,100 L520,70 Z"/>
  <path class="land" d="M570,35 L600,30 L630,45 L640,75 L625,100 L595,105 L570,85 L560,55 Z"/>
  
  <!-- Africa -->
  <path class="land" d="M495,270 L545,260 L600,270 L645,300 L670,350 L680,410 L670,480 L640,530 L590,560 L535,565 L490,540 L465,490 L460,430 L470,370 L485,310 Z"/>
  
  <!-- Madagascar -->
  <path class="land" d="M700,450 L720,440 L735,460 L730,500 L710,520 L690,510 L685,470 Z"/>
  
  <!-- Middle East -->
  <path class="land" d="M630,230 L680,220 L720,240 L740,280 L730,320 L700,340 L660,335 L635,310 L625,270 Z"/>
  
  <!-- Russia/Central Asia -->
  <path class="land" d="M700,80 L780,60 L870,70 L950,90 L1010,120 L1040,160 L1030,200 L990,230 L930,245 L860,240 L790,220 L740,190 L710,150 L695,110 Z"/>
  
  <!-- India -->
  <path class="land" d="M780,280 L820,265 L855,285 L870,330 L860,380 L830,420 L790,430 L760,405 L755,355 L765,310 Z"/>
  
  <!-- Southeast Asia -->
  <path class="land" d="M875,320 L910,305 L940,325 L950,365 L930,400 L895,410 L865,390 L860,350 Z"/>
  
  <!-- China/East Asia -->
  <path class="land" d="M870,180 L940,165 L1010,180 L1050,220 L1060,275 L1040,320 L990,345 L930,340 L885,310 L860,260 L855,210 Z"/>
  
  <!-- Japan -->
  <path class="land" d="M1070,200 L1095,185 L1115,200 L1120,235 L1105,260 L1080,265 L1065,245 L1060,215 Z"/>
  <path class="land" d="M1085,265 L1100,260 L1110,275 L1105,295 L1090,300 L1080,285 Z"/>
  
  <!-- Korea -->
  <path class="land" d="M1045,230 L1060,220 L1070,240 L1065,270 L1050,280 L1040,260 Z"/>
  
  <!-- Philippines -->
  <path class="land" d="M1010,370 L1030,360 L1045,380 L1040,410 L1020,420 L1005,400 Z"/>
  
  <!-- Indonesia -->
  <path class="land" d="M925,430 L970,420 L1010,440 L1000,475 L955,485 L920,465 Z"/>
  <path class="land" d="M1020,450 L1060,440 L1095,460 L1085,495 L1045,505 L1015,480 Z"/>
  <path class="land" d="M990,500 L1030,495 L1050,520 L1035,545 L1000,545 L985,520 Z"/>
  
  <!-- Australia -->
  <path class="land" d="M980,530 L1050,510 L1120,530 L1160,580 L1150,640 L1100,680 L1030,690 L970,660 L950,600 L955,550 Z"/>
  
  <!-- New Zealand -->
  <path class="land" d="M1175,620 L1195,610 L1210,630 L1200,660 L1180,670 L1165,650 Z"/>
  <path class="land" d="M1185,675 L1200,670 L1210,690 L1200,710 L1185,705 Z"/>
  
  <!-- Taiwan -->
  <path class="land" d="M1040,320 L1055,315 L1060,340 L1050,360 L1035,355 Z"/>
  
  <!-- Sri Lanka -->
  <path class="land" d="M820,440 L840,435 L850,455 L840,475 L820,470 L815,450 Z"/>
</svg>
